<?xml version="1.0" encoding="UTF-8" standalone="no"?>
<svg
   xmlns:dc="http://purl.org/dc/elements/1.1/"
   xmlns:cc="http://creativecommons.org/ns#"
   xmlns:rdf="http://www.w3.org/1999/02/22-rdf-syntax-ns#"
   xmlns:svg="http://www.w3.org/2000/svg"
   xmlns="http://www.w3.org/2000/svg"
   xmlns:sodipodi="http://sodipodi.sourceforge.net/DTD/sodipodi-0.dtd"
   xmlns:inkscape="http://www.inkscape.org/namespaces/inkscape"
   width="336.43271"
   height="600.82782"
   version="1.1"
   id="svg23"
   sodipodi:docname="2. rocket-ship Clip Art.svg"
   viewBox="0 0 336.43271 600.82781"
   inkscape:version="0.92pre1_64bit r15016">
  <defs
     id="defs27" />
  <sodipodi:namedview
     pagecolor="#ffffff"
     bordercolor="#666666"
     borderopacity="1"
     objecttolerance="10"
     gridtolerance="10"
     guidetolerance="10"
     inkscape:pageopacity="0"
     inkscape:pageshadow="2"
     inkscape:window-width="1366"
     inkscape:window-height="745"
     id="namedview25"
     showgrid="false"
     fit-margin-top="10"
     fit-margin-left="10"
     fit-margin-right="10"
     fit-margin-bottom="10"
     inkscape:zoom="0.98530724"
     inkscape:cx="168.21635"
     inkscape:cy="300.41391"
     inkscape:window-x="-8"
     inkscape:window-y="-8"
     inkscape:window-maximized="1"
     inkscape:current-layer="svg23" />
  <metadata
     id="metadata7">image/svg+xml<rdf:RDF>
  <cc:Work
     rdf:about="">
    <dc:format>image/svg+xml</dc:format>
    <dc:type
       rdf:resource="http://purl.org/dc/dcmitype/StillImage" />
    <dc:title></dc:title>
  </cc:Work>
</rdf:RDF>
</metadata>
  <g
     id="g21"
     transform="matrix(4.0678522,0,0,4.0678522,-96.098118,87.819461)">
    <title
       id="title3">Layer 1</title>
    <path
       d="M 17.5809,76.019699 40.869301,98.569504 C 70.805496,73.477898 108.888,51.623402 110.968,2.87421 62.311199,6.5239 40.728599,44.6273 17.5809,76.019798 Z"
       id="path3297"
       stroke-miterlimit="4"
       transform="rotate(-44.7885,64.2754,50.7227)"
       inkscape:connector-curvature="0"
       style="fill:#bfbfbf;fill-rule:evenodd;stroke:#000000;stroke-width:6;stroke-linejoin:round;stroke-miterlimit:4" />
    <path
       id="svg_2"
       d="M 70.8647,12.1274 A 6.5903749,6.6667015 0 1 1 58.597801,7.249169 7.0997461,7.181972 0 1 1 68.855499,17.181499 Z"
       inkscape:connector-curvature="0"
       style="marker-start:none;marker-mid:none;marker-end:none" />
    <path
       id="svg_3"
       d="M 70.8657,12.1265 A 6.5906773,6.6670074 0 1 1 58.597801,7.24917 7.0997461,7.181972 0 1 1 68.855499,17.1815 L 70.8657,12.126501 Z"
       inkscape:connector-curvature="0"
       style="marker-start:none;marker-mid:none;marker-end:none" />
    <path
       id="svg_4"
       d="M 70.8657,12.1265 A 6.5906773,6.6670074 0 1 1 58.597801,7.24917 7.0997461,7.181972 0 1 1 68.855499,17.1815 L 70.8657,12.126501 Z"
       inkscape:connector-curvature="0"
       style="marker-start:none;marker-mid:none;marker-end:none" />
    <path
       id="svg_5"
       d="M 70.8657,12.1265 A 6.5906773,6.6670074 0 1 1 58.597801,7.24917 7.0997461,7.181972 0 1 1 68.855499,17.1815 L 70.8657,12.126501 Z"
       inkscape:connector-curvature="0"
       style="marker-start:none;marker-mid:none;marker-end:none" />
    <path
       id="svg_6"
       d="M 70.8657,12.1265 A 6.5906773,6.6670074 0 1 1 58.597801,7.24917 7.0997461,7.181972 0 1 1 68.855499,17.1815 L 70.8657,12.126501 Z"
       inkscape:connector-curvature="0"
       style="marker-start:none;marker-mid:none;marker-end:none" />
    <path
       id="svg_7"
       d="M 70.8657,12.1265 A 6.5906773,6.6670074 0 1 1 58.597801,7.24917 7.0997461,7.181972 0 1 1 68.855499,17.1815 L 70.8657,12.126501 Z"
       inkscape:connector-curvature="0"
       style="marker-start:none;marker-mid:none;marker-end:none" />
    <path
       id="path3301"
       d="M 68.855476,17.181549 A 7.0997657,7.1819918 0 1 1 58.59777,7.24917 7.0997657,7.1819918 0 1 1 68.855476,17.181549 Z"
       stroke-miterlimit="4"
       transform="rotate(-44.7885,63.7266,12.2148)"
       inkscape:connector-curvature="0"
       style="fill:#aaffff;fill-rule:evenodd;stroke:#000000;stroke-width:3.61041188;stroke-linejoin:round;stroke-miterlimit:4;stroke-dashoffset:0;marker-start:none;marker-mid:none;marker-end:none" />
    <path
       id="svg_8"
       d="m 71.117599,32.497398 a 6.5907575,6.6670885 0 1 1 -12.2682,-4.876999 7.0997715,7.1819976 0 1 1 10.257702,9.9324 z"
       inkscape:connector-curvature="0"
       style="marker-start:none;marker-mid:none;marker-end:none" />
    <path
       id="svg_9"
       d="M 71.116096,32.498501 A 6.5902574,6.6665826 0 1 1 58.849399,27.6204 7.0997715,7.1819976 0 1 1 69.107101,37.5528 Z"
       inkscape:connector-curvature="0"
       style="marker-start:none;marker-mid:none;marker-end:none" />
    <path
       d="M 69.107117,37.552799 A 7.0997697,7.1819958 0 1 1 58.8494,27.62042 7.0997697,7.1819958 0 1 1 69.107117,37.552799 Z"
       id="path3303"
       stroke-miterlimit="4"
       transform="rotate(-44.7885,63.9785,32.5879)"
       inkscape:connector-curvature="0"
       style="fill:#aaffff;fill-rule:evenodd;stroke:#000000;stroke-width:3.61041188;stroke-linejoin:round;stroke-miterlimit:4;stroke-dashoffset:0;marker-start:none;marker-mid:none;marker-end:none" />
    <path
       id="svg_10"
       d="M 71.373802,53.146 A 6.5904506,6.6667781 0 1 1 59.1063,48.268902 a 7.09977,7.1819962 0 1 1 10.257698,9.9324 z"
       inkscape:connector-curvature="0"
       style="marker-start:none;marker-mid:none;marker-end:none" />
    <path
       id="svg_11"
       d="m 71.372704,53.146301 a 6.5899936,6.6663158 0 1 1 -12.266403,-4.877399 7.09977,7.1819962 0 1 1 10.257698,9.9324 l 2.008705,-5.055 z"
       inkscape:connector-curvature="0"
       style="marker-start:none;marker-mid:none;marker-end:none" />
    <path
       id="path3305"
       d="M 69.363983,58.20129 A 7.0997689,7.1819951 0 1 1 59.10627,48.268909 7.0997689,7.1819951 0 1 1 69.363983,58.20129 Z"
       stroke-miterlimit="4"
       transform="rotate(-44.7885,64.2344,53.2363)"
       inkscape:connector-curvature="0"
       style="fill:#aaffff;fill-rule:evenodd;stroke:#000000;stroke-width:3.61041188;stroke-linejoin:round;stroke-miterlimit:4;stroke-dashoffset:0;marker-start:none;marker-mid:none;marker-end:none" />
    <path
       d="m 40.76371,104.84049 -19.77302,6.85797 C 25.2672,99.019256 32.034519,82.628639 41.166809,77.028968 c 6.00024,-3.679199 20.32476,-0.938141 20.32476,-0.938141 z"
       id="path3307"
       stroke-miterlimit="4"
       transform="rotate(-44.7885,41.2422,93.4043)"
       inkscape:connector-curvature="0"
       style="fill:#ff0000;fill-rule:evenodd;stroke:#000000;stroke-width:6;stroke-linejoin:round;stroke-miterlimit:4" />
    <path
       id="path3309"
       d="m 77.410316,92.219254 -6.217339,19.983706 c 12.534836,-4.6828 28.698914,-11.97467 34.001463,-21.282656 3.48393,-6.115662 0.28281,-20.344421 0.28281,-20.344421 L 77.410315,92.219255 Z"
       stroke-miterlimit="4"
       transform="rotate(-44.7885,89.0059,91.3887)"
       inkscape:connector-curvature="0"
       style="fill:#ff0000;fill-rule:evenodd;stroke:#000000;stroke-width:6;stroke-linejoin:round;stroke-miterlimit:4" />
  </g>
</svg>
